# xmcd
#
# Track frame offsets:
#	182
#	16142
#	25465
#	39590
#	60035
#	73122
#	83185
#	94642
#	102647
#	114195
#	134432
#	146697
#	159850
#	174115
#	185782
#	205087
#	215212
#	228512
#	244600
#	257097
#
# Disc length: 3597 seconds
#
# Revision: 3
# Processed by: cddbd v1.5.1PL2 Copyright (c) Steve Scherf et al.
# Submitted via: audiograbber 1.83.01
#
DISCID=110e0b14
DTITLE=Various Artist - The Very Best of Cajun - CD 1
DYEAR=1996
DGENRE=Country
TTITLE0=tRockin' Sidney - My Toot Too
TTITLE1=Johnnie Allan - Promised Land
TTITLE2=Charles Mann - The Walk of Life
TTITLE3=Movin' on Up-Keith Frank - Watchin my Step
TTITLE4=Hank Williams - Jambalaya
TTITLE5=Badeaux and The Louisiana Aces with D.L. Menard  - The Back Door
TTITLE6=Rusty and Doug Kershaw - Louisiana Man
TTITLE7=Jimmy C. Newman - Hippy Tai Yo
TTITLE8=Shirley Bergeron - French Rocking Boogie
TTITLE9=Hadley J. Castille - Milk Cow Blues
TTITLE10=Clifton Chenier - Ay-Te Te Fee
TTITLE11=Nathan Abshire - The Pine Grove Blues
TTITLE12=The Balfa Brothers - Drunkard's Sorrow Waltz
TTITLE13=Iry LeJeune - Evangeline Special
TTITLE14=Steve Riley and The Mamou Playboys - Je M'En Fous Pas Mal
TTITLE15=Bill Matte - Parlez Vous L'Francais
TTITLE16=Beausoleil - Zydeco Gris-Gris
TTITLE17=Beau Jocque - My Name Is Beau Jocque
TTITLE18=Rod Bernard - This should go on forever
TTITLE19=Bobby Charles - See You Later Alligator
EXTD=
EXTT0=
EXTT1=Johnnie Allan
EXTT2=Charles Mann
EXTT3=Keith Frank
EXTT4=Hank Williams
EXTT5=Badeaux and Louisiana Aces with D L Menard
EXTT6=Rusty and Doug Kershaw
EXTT7=Jimmy C Newman
EXTT8=Shirley Bergeron
EXTT9=Hadley J Castille
EXTT10=Clifton Chenier
EXTT11=Nathan Abshire
EXTT12=The Balfa Brothers
EXTT13=Iry LeJeune
EXTT14=Steve Riley and The Mamou Playboys
EXTT15=Bill Matte
EXTT16=Beausoleil
EXTT17=Beau Jocque
EXTT18=Rod Bernard
EXTT19=Bobby Charles
PLAYORDER=
